<?xml version="1.0" encoding="UTF-8" standalone="no"?>
<!DOCTYPE svg PUBLIC "-//W3C//DTD SVG 1.1//EN" "http://www.w3.org/Graphics/SVG/1.1/DTD/svg11.dtd">
<svg width="100%" height="100%" viewBox="0 0 2302 476" version="1.1" xmlns="http://www.w3.org/2000/svg" xmlns:xlink="http://www.w3.org/1999/xlink" xml:space="preserve" xmlns:serif="http://www.serif.com/" style="fill-rule:evenodd;clip-rule:evenodd;stroke-linejoin:round;stroke-miterlimit:2;">
    <g transform="matrix(1,0,0,1,-602.541,-894.719)">
        <g transform="matrix(1.25325,0,0,1.25325,127.212,208.805)">
            <path d="M527.219,881.817L626.952,881.817C631.54,881.817 635.264,878.093 635.264,873.506C635.264,868.918 631.54,865.194 626.952,865.194L527.219,865.194C522.631,865.194 518.907,868.918 518.907,873.506C518.907,878.093 522.631,881.817 527.219,881.817Z" style="fill:rgb(3,2,22);"/>
        </g>
        <g transform="matrix(1.25325,0,0,1.25325,-575.126,269.86)">
            <path d="M1145.81,824.789C1145.81,829.376 1142.09,833.101 1137.5,833.101C1132.91,833.101 1129.19,829.376 1129.19,824.789L1129.19,542.857L1145.81,542.857L1145.81,824.789Z" style="fill:rgb(3,2,22);"/>
        </g>
        <g transform="matrix(1.25325,0,0,0.954915,-533.049,416.627)">
            <path d="M1103.92,678.204L1195.8,586.326C1199.45,582.677 1204.67,583.603 1207.45,588.392C1210.23,593.181 1209.53,600.031 1205.88,603.68L1108.96,700.595C1105.99,703.571 1101.86,703.571 1098.89,700.595L1001.97,603.68C998.324,600.031 997.618,593.181 1000.4,588.392C1003.18,583.603 1008.4,582.677 1012.05,586.326L1103.92,678.204Z" style="fill:rgb(3,2,22);"/>
        </g>
        <g transform="matrix(1.76343,0,0,1.34779,-1096.26,276.17)">
            <path d="M1103.92,682.191L1197.25,588.862C1199.84,586.272 1203.55,586.921 1205.53,590.31C1207.51,593.699 1207.02,598.553 1204.43,601.144L1107.51,698.059C1105.39,700.176 1102.46,700.176 1100.34,698.059L1003.42,601.144C1000.83,598.553 1000.34,593.699 1002.32,590.31C1004.3,586.921 1008.01,586.272 1010.6,588.862L1103.92,682.191Z" style="fill:rgb(3,2,22);"/>
        </g>
        <g transform="matrix(1.25325,0,0,1.25325,-575.126,316.001)">
            <path d="M1211.77,666.938L1268.97,708.621C1272.68,711.323 1277.88,710.506 1280.59,706.799C1283.29,703.091 1282.47,697.888 1278.76,695.186L1221.56,653.504C1217.86,650.802 1212.65,651.619 1209.95,655.326C1207.25,659.033 1208.07,664.237 1211.77,666.938Z" style="fill:rgb(3,2,22);"/>
        </g>
        <g transform="matrix(-1.25325,0,0,1.25325,2276.01,316.001)">
            <path d="M1221.56,653.504L1278.76,695.186C1282.47,697.888 1283.29,703.091 1280.59,706.799C1277.88,710.506 1272.68,711.323 1268.97,708.621L1211.77,666.938C1208.07,664.237 1207.25,659.033 1209.95,655.326C1212.65,651.619 1217.86,650.802 1221.56,653.504Z" style="fill:rgb(3,2,22);"/>
        </g>
        <g transform="matrix(1.25325,0,0,1.25325,-901.807,448.872)">
            <circle cx="1471.76" cy="554.2" r="29.064" style="fill:rgb(42,155,45);"/>
        </g>
        <g transform="matrix(1.25325,0,0,1.25325,-901.807,448.872)">
            <path d="M1471.76,516.825C1451.13,516.825 1434.39,533.572 1434.39,554.2C1434.39,574.828 1451.13,591.575 1471.76,591.575C1492.39,591.575 1509.14,574.828 1509.14,554.2C1509.14,533.572 1492.39,516.825 1471.76,516.825ZM1471.76,533.448C1483.21,533.448 1492.51,542.747 1492.51,554.2C1492.51,565.653 1483.21,574.952 1471.76,574.952C1460.31,574.952 1451.01,565.653 1451.01,554.2C1451.01,542.747 1460.31,533.448 1471.76,533.448Z" style="fill:rgb(3,2,22);"/>
        </g>
        <g transform="matrix(1.25325,0,0,1.25325,-1093.26,448.049)">
            <circle cx="1471.76" cy="554.2" r="29.064" style="fill:rgb(62,132,194);"/>
        </g>
        <g transform="matrix(1.25325,0,0,1.25325,-1093.26,448.049)">
            <path d="M1471.76,516.825C1451.13,516.825 1434.39,533.572 1434.39,554.2C1434.39,574.828 1451.13,591.575 1471.76,591.575C1492.39,591.575 1509.14,574.828 1509.14,554.2C1509.14,533.572 1492.39,516.825 1471.76,516.825ZM1471.76,533.448C1483.21,533.448 1492.51,542.747 1492.51,554.2C1492.51,565.653 1483.21,574.952 1471.76,574.952C1460.31,574.952 1451.01,565.653 1451.01,554.2C1451.01,542.747 1460.31,533.448 1471.76,533.448Z" style="fill:rgb(3,2,22);"/>
        </g>
        <g transform="matrix(1.25325,0,0,1.25325,-994.039,247.009)">
            <circle cx="1471.76" cy="554.2" r="29.064" style="fill:rgb(62,132,194);"/>
        </g>
        <g transform="matrix(1.25325,0,0,1.25325,-994.039,247.009)">
            <path d="M1471.76,516.825C1451.13,516.825 1434.39,533.572 1434.39,554.2C1434.39,574.828 1451.13,591.575 1471.76,591.575C1492.39,591.575 1509.14,574.828 1509.14,554.2C1509.14,533.572 1492.39,516.825 1471.76,516.825ZM1471.76,533.448C1483.21,533.448 1492.51,542.747 1492.51,554.2C1492.51,565.653 1483.21,574.952 1471.76,574.952C1460.31,574.952 1451.01,565.653 1451.01,554.2C1451.01,542.747 1460.31,533.448 1471.76,533.448Z" style="fill:rgb(3,2,22);"/>
        </g>
        <g transform="matrix(1.25325,0,0,1.25325,-994.039,372.951)">
            <circle cx="1471.76" cy="554.2" r="29.064" style="fill:rgb(62,132,194);"/>
        </g>
        <g transform="matrix(1.25325,0,0,1.25325,-994.039,372.951)">
            <path d="M1471.76,516.825C1451.13,516.825 1434.39,533.572 1434.39,554.2C1434.39,574.828 1451.13,591.575 1471.76,591.575C1492.39,591.575 1509.14,574.828 1509.14,554.2C1509.14,533.572 1492.39,516.825 1471.76,516.825ZM1471.76,533.448C1483.21,533.448 1492.51,542.747 1492.51,554.2C1492.51,565.653 1483.21,574.952 1471.76,574.952C1460.31,574.952 1451.01,565.653 1451.01,554.2C1451.01,542.747 1460.31,533.448 1471.76,533.448Z" style="fill:rgb(3,2,22);"/>
        </g>
        <g transform="matrix(1.25325,0,0,1.25325,-865.383,290.254)">
            <circle cx="1471.76" cy="554.2" r="29.064" style="fill:rgb(74,109,172);"/>
        </g>
        <g transform="matrix(1.25325,0,0,1.25325,-865.383,290.254)">
            <path d="M1471.76,516.825C1451.13,516.825 1434.39,533.572 1434.39,554.2C1434.39,574.828 1451.13,591.575 1471.76,591.575C1492.39,591.575 1509.14,574.828 1509.14,554.2C1509.14,533.572 1492.39,516.825 1471.76,516.825ZM1471.76,533.448C1483.21,533.448 1492.51,542.747 1492.51,554.2C1492.51,565.653 1483.21,574.952 1471.76,574.952C1460.31,574.952 1451.01,565.653 1451.01,554.2C1451.01,542.747 1460.31,533.448 1471.76,533.448Z" style="fill:rgb(3,2,22);"/>
        </g>
        <g transform="matrix(1.25325,0,0,1.25325,-1115.5,290.254)">
            <circle cx="1471.76" cy="554.2" r="29.064" style="fill:rgb(74,109,172);"/>
        </g>
        <g transform="matrix(1.25325,0,0,1.25325,-1115.5,290.254)">
            <path d="M1471.76,516.825C1451.13,516.825 1434.39,533.572 1434.39,554.2C1434.39,574.828 1451.13,591.575 1471.76,591.575C1492.39,591.575 1509.14,574.828 1509.14,554.2C1509.14,533.572 1492.39,516.825 1471.76,516.825ZM1471.76,533.448C1483.21,533.448 1492.51,542.747 1492.51,554.2C1492.51,565.653 1483.21,574.952 1471.76,574.952C1460.31,574.952 1451.01,565.653 1451.01,554.2C1451.01,542.747 1460.31,533.448 1471.76,533.448Z" style="fill:rgb(3,2,22);"/>
        </g>
        <g transform="matrix(1.25325,0,0,1.25325,-802.027,511.626)">
            <circle cx="1471.76" cy="554.2" r="29.064" style="fill:rgb(42,155,45);"/>
        </g>
        <g transform="matrix(1.25325,0,0,1.25325,-802.027,511.626)">
            <path d="M1471.76,516.825C1451.13,516.825 1434.39,533.572 1434.39,554.2C1434.39,574.828 1451.13,591.575 1471.76,591.575C1492.39,591.575 1509.14,574.828 1509.14,554.2C1509.14,533.572 1492.39,516.825 1471.76,516.825ZM1471.76,533.448C1483.21,533.448 1492.51,542.747 1492.51,554.2C1492.51,565.653 1483.21,574.952 1471.76,574.952C1460.31,574.952 1451.01,565.653 1451.01,554.2C1451.01,542.747 1460.31,533.448 1471.76,533.448Z" style="fill:rgb(3,2,22);"/>
        </g>
        <g transform="matrix(1.25325,0,0,1.25325,-1188.35,511.626)">
            <circle cx="1471.76" cy="554.2" r="29.064" style="fill:rgb(75,109,172);"/>
        </g>
        <g transform="matrix(1.25325,0,0,1.25325,-1188.35,511.626)">
            <path d="M1471.76,516.825C1451.13,516.825 1434.39,533.572 1434.39,554.2C1434.39,574.828 1451.13,591.575 1471.76,591.575C1492.39,591.575 1509.14,574.828 1509.14,554.2C1509.14,533.572 1492.39,516.825 1471.76,516.825ZM1471.76,533.448C1483.21,533.448 1492.51,542.747 1492.51,554.2C1492.51,565.653 1483.21,574.952 1471.76,574.952C1460.31,574.952 1451.01,565.653 1451.01,554.2C1451.01,542.747 1460.31,533.448 1471.76,533.448Z" style="fill:rgb(3,2,22);"/>
        </g>
        <g transform="matrix(1.25325,0,0,1.25325,-794.44,375.201)">
            <circle cx="1471.76" cy="554.2" r="29.064" style="fill:rgb(42,155,45);"/>
        </g>
        <g transform="matrix(1.25325,0,0,1.25325,-794.44,375.201)">
            <path d="M1471.76,516.825C1451.13,516.825 1434.39,533.572 1434.39,554.2C1434.39,574.828 1451.13,591.575 1471.76,591.575C1492.39,591.575 1509.14,574.828 1509.14,554.2C1509.14,533.572 1492.39,516.825 1471.76,516.825ZM1471.76,533.448C1483.21,533.448 1492.51,542.747 1492.51,554.2C1492.51,565.653 1483.21,574.952 1471.76,574.952C1460.31,574.952 1451.01,565.653 1451.01,554.2C1451.01,542.747 1460.31,533.448 1471.76,533.448Z" style="fill:rgb(3,2,22);"/>
        </g>
        <g transform="matrix(1.25325,0,0,1.25325,-1195.1,375.201)">
            <circle cx="1471.76" cy="554.2" r="29.064" style="fill:rgb(75,109,172);"/>
        </g>
        <g transform="matrix(1.25325,0,0,1.25325,-1195.1,375.201)">
            <path d="M1471.76,516.825C1451.13,516.825 1434.39,533.572 1434.39,554.2C1434.39,574.828 1451.13,591.575 1471.76,591.575C1492.39,591.575 1509.14,574.828 1509.14,554.2C1509.14,533.572 1492.39,516.825 1471.76,516.825ZM1471.76,533.448C1483.21,533.448 1492.51,542.747 1492.51,554.2C1492.51,565.653 1483.21,574.952 1471.76,574.952C1460.31,574.952 1451.01,565.653 1451.01,554.2C1451.01,542.747 1460.31,533.448 1471.76,533.448Z" style="fill:rgb(3,2,22);"/>
        </g>
        <g transform="matrix(6.82604,0,0,6.20317,-4758.63,-2360.98)">
            <g transform="matrix(55.4233,0,0,60.9885,876.417,592.291)">
                <path d="M0.27,-0.136C0.27,-0.077 0.259,-0.026 0.236,0.017C0.213,0.059 0.181,0.091 0.141,0.114C0.101,0.136 0.055,0.148 0.003,0.15L0.003,0.046C0.05,0.043 0.088,0.027 0.118,-0.002C0.148,-0.031 0.163,-0.077 0.163,-0.139L0.163,-0.726L0.27,-0.726L0.27,-0.136Z" style="fill:rgb(3,2,22);fill-rule:nonzero;"/>
            </g>
            <g transform="matrix(55.4233,0,0,60.9885,899.806,592.291)">
                <path d="M0.198,-0.259C0.198,-0.228 0.206,-0.201 0.221,-0.176C0.236,-0.151 0.257,-0.132 0.282,-0.117C0.307,-0.102 0.336,-0.095 0.367,-0.095C0.4,-0.095 0.43,-0.102 0.456,-0.117C0.482,-0.132 0.502,-0.151 0.518,-0.176C0.533,-0.201 0.54,-0.228 0.54,-0.259L0.54,-0.726L0.645,-0.726L0.645,-0.256C0.645,-0.203 0.633,-0.157 0.608,-0.118C0.583,-0.078 0.55,-0.047 0.508,-0.025C0.466,-0.003 0.419,0.008 0.367,0.008C0.316,0.008 0.27,-0.003 0.228,-0.025C0.186,-0.047 0.153,-0.078 0.129,-0.118C0.104,-0.157 0.092,-0.203 0.092,-0.256L0.092,-0.726L0.198,-0.726L0.198,-0.259Z" style="fill:rgb(3,2,22);fill-rule:nonzero;"/>
            </g>
            <g transform="matrix(55.4233,0,0,60.9885,943.369,592.291)">
                <path d="M0.735,0.025L0.176,-0.53L0.207,-0.52L0.21,-0L0.102,-0L0.102,-0.749L0.107,-0.749L0.659,-0.193L0.634,-0.2L0.632,-0.726L0.738,-0.726L0.738,0.025L0.735,0.025Z" style="fill:rgb(3,2,22);fill-rule:nonzero;"/>
            </g>
            <g transform="matrix(55.4233,0,0,60.9885,992.751,592.291)">
                <rect x="0.102" y="-0.726" width="0.107" height="0.726" style="fill:rgb(3,2,22);fill-rule:nonzero;"/>
            </g>
            <g transform="matrix(55.4233,0,0,60.9885,1012.76,592.291)">
                <path d="M0.302,-0.726C0.356,-0.726 0.402,-0.717 0.441,-0.699C0.479,-0.68 0.508,-0.654 0.529,-0.62C0.549,-0.586 0.559,-0.545 0.559,-0.496C0.559,-0.467 0.555,-0.439 0.546,-0.411C0.537,-0.383 0.524,-0.358 0.505,-0.335C0.486,-0.312 0.46,-0.293 0.429,-0.28C0.398,-0.266 0.36,-0.259 0.315,-0.259L0.209,-0.259L0.209,-0L0.102,-0L0.102,-0.726L0.302,-0.726ZM0.315,-0.362C0.342,-0.362 0.364,-0.367 0.382,-0.376C0.4,-0.385 0.414,-0.396 0.425,-0.41C0.435,-0.424 0.442,-0.439 0.447,-0.454C0.451,-0.468 0.453,-0.482 0.453,-0.494C0.453,-0.507 0.451,-0.522 0.447,-0.537C0.442,-0.552 0.435,-0.566 0.425,-0.579C0.415,-0.592 0.401,-0.602 0.384,-0.611C0.367,-0.619 0.345,-0.623 0.319,-0.623L0.209,-0.623L0.209,-0.362L0.315,-0.362Z" style="fill:rgb(3,2,22);fill-rule:nonzero;"/>
            </g>
            <g transform="matrix(55.4233,0,0,60.9885,1048.95,592.291)">
                <path d="M0.102,-0.726L0.579,-0.726L0.579,-0.623L0.209,-0.623L0.209,-0.416L0.538,-0.416L0.538,-0.313L0.209,-0.313L0.209,-0.103L0.593,-0.103L0.593,-0L0.102,-0L0.102,-0.726Z" style="fill:rgb(3,2,22);fill-rule:nonzero;"/>
            </g>
            <g transform="matrix(55.4233,0,0,60.9885,1088.02,592.291)">
                <path d="M0.301,-0.726C0.339,-0.726 0.374,-0.721 0.407,-0.711C0.439,-0.7 0.466,-0.685 0.49,-0.666C0.513,-0.647 0.531,-0.623 0.544,-0.595C0.557,-0.566 0.563,-0.533 0.563,-0.496C0.563,-0.467 0.559,-0.439 0.55,-0.411C0.541,-0.383 0.527,-0.358 0.508,-0.335C0.489,-0.312 0.463,-0.294 0.432,-0.281C0.401,-0.267 0.362,-0.26 0.315,-0.26L0.209,-0.26L0.209,-0L0.102,-0L0.102,-0.726L0.301,-0.726ZM0.313,-0.362C0.34,-0.362 0.363,-0.366 0.382,-0.375C0.4,-0.384 0.414,-0.395 0.425,-0.408C0.435,-0.421 0.442,-0.435 0.447,-0.45C0.451,-0.464 0.453,-0.479 0.453,-0.493C0.453,-0.506 0.451,-0.52 0.447,-0.535C0.442,-0.55 0.435,-0.564 0.425,-0.577C0.414,-0.59 0.4,-0.601 0.383,-0.61C0.366,-0.619 0.344,-0.623 0.319,-0.623L0.209,-0.623L0.209,-0.362L0.313,-0.362ZM0.436,-0.3L0.624,-0L0.5,-0L0.309,-0.297L0.436,-0.3Z" style="fill:rgb(3,2,22);fill-rule:nonzero;"/>
            </g>
        </g>
    </g>
</svg>
